<svg xmlns="http://www.w3.org/2000/svg" xmlns:xlink="http://www.w3.org/1999/xlink" width="512" zoomAndPan="magnify" viewBox="0 0 384 383.999986" height="512" preserveAspectRatio="xMidYMid meet" version="1.0"><defs><clipPath id="f15be4ccd3"><path d="M 65.644531 170 L 318 170 L 318 345.59375 L 65.644531 345.59375 Z M 65.644531 170 " clip-rule="nonzero"/></clipPath><clipPath id="473d80426c"><path d="M 65.644531 112 L 318.394531 112 L 318.394531 291 L 65.644531 291 Z M 65.644531 112 " clip-rule="nonzero"/></clipPath><clipPath id="7d329cd640"><path d="M 65.644531 56.84375 L 318.394531 56.84375 L 318.394531 235 L 65.644531 235 Z M 65.644531 56.84375 " clip-rule="nonzero"/></clipPath></defs><rect x="-38.4" width="460.8" fill="#ffffff" y="-38.399999" height="460.799983" fill-opacity="1"/><rect x="-38.4" width="460.8" fill="#9d4edd" y="-38.399999" height="460.799983" fill-opacity="1"/><g clip-path="url(#f15be4ccd3)"><path fill="#ffffff" d="M 65.945312 345.394531 L 317.949219 345.59375 L 192.199219 170.597656 Z M 65.945312 345.394531 " fill-opacity="1" fill-rule="nonzero"/></g><g clip-path="url(#473d80426c)"><path fill="#ffffff" d="M 69.640625 286.5625 L 192.199219 116.859375 L 314.15625 286.660156 L 69.640625 286.5625 M 65.644531 286.5625 C 65.644531 287.160156 65.746094 287.761719 66.046875 288.359375 C 66.746094 289.660156 68.144531 290.558594 69.640625 290.558594 L 314.15625 290.65625 C 315.652344 290.65625 317.050781 289.859375 317.75 288.460938 C 318.050781 287.859375 318.148438 287.261719 318.148438 286.660156 C 318.148438 285.863281 317.851562 285.0625 317.351562 284.363281 L 195.394531 114.5625 C 194.59375 113.566406 193.394531 112.867188 192.199219 112.867188 C 190.898438 112.867188 189.699219 113.464844 189 114.5625 L 66.445312 284.164062 C 65.945312 284.863281 65.644531 285.664062 65.644531 286.5625 Z M 65.644531 286.5625 " fill-opacity="1" fill-rule="nonzero"/></g><g clip-path="url(#7d329cd640)"><path fill="#ffffff" d="M 69.839844 230.226562 L 192.398438 60.628906 L 314.355469 230.429688 L 69.839844 230.226562 M 65.847656 230.226562 C 65.847656 230.828125 65.945312 231.425781 66.246094 232.027344 C 66.945312 233.324219 68.34375 234.222656 69.839844 234.222656 L 314.355469 234.421875 C 315.851562 234.421875 317.25 233.625 317.949219 232.226562 C 318.25 231.625 318.347656 231.027344 318.347656 230.429688 C 318.347656 229.628906 318.050781 228.828125 317.550781 228.128906 L 195.59375 58.328125 C 194.792969 57.332031 193.597656 56.632812 192.398438 56.632812 C 191.097656 56.632812 189.898438 57.230469 189.199219 58.328125 L 66.644531 227.832031 C 66.144531 228.53125 65.847656 229.429688 65.847656 230.226562 Z M 65.847656 230.226562 " fill-opacity="1" fill-rule="nonzero"/></g></svg>
