<svg xmlns="http://www.w3.org/2000/svg" xmlns:xlink="http://www.w3.org/1999/xlink" width="512" zoomAndPan="magnify" viewBox="0 0 384 383.999986" height="512" preserveAspectRatio="xMidYMid meet" version="1.0"><defs><g/><clipPath id="5864639e22"><rect x="0" width="322" y="0" height="299"/></clipPath></defs><rect x="-38.4" width="460.8" fill="#ffffff" y="-38.399999" height="460.799983" fill-opacity="1"/><rect x="-38.4" width="460.8" fill="#fcfcfc" y="-38.399999" height="460.799983" fill-opacity="1"/><g transform="matrix(1, 0, 0, 1, 25, 42)"><g clip-path="url(#5864639e22)"><g fill="#4a2e6f" fill-opacity="1"><g transform="translate(137.273591, 240.534396)"><g><path d="M 68.84375 -116.21875 L 34.046875 -116.21875 L 34.046875 0 L 19 0 L 19 -172.71875 L 34.046875 -172.71875 L 34.046875 -129.546875 L 68.84375 -129.546875 L 68.84375 -172.71875 L 83.890625 -172.71875 L 83.890625 0 L 68.84375 0 Z M 68.84375 -116.21875 "/></g></g></g><g fill="#4a2e6f" fill-opacity="1"><g transform="translate(220.41973, 240.534396)"><g><path d="M 99.4375 -86.859375 C 99.4375 -67.941406 98.035156 -52.191406 95.234375 -39.609375 C 92.441406 -27.023438 88.25 -17.359375 82.65625 -10.609375 L 95.25 15.296875 L 81.1875 22.453125 L 69.828125 -0.5 C 65.222656 1.476562 59.957031 2.46875 54.03125 2.46875 C 39.0625 2.46875 27.753906 -4.726562 20.109375 -19.125 C 12.460938 -33.519531 8.640625 -56.097656 8.640625 -86.859375 C 8.640625 -117.785156 12.460938 -140.398438 20.109375 -154.703125 C 27.753906 -169.015625 39.0625 -176.171875 54.03125 -176.171875 C 69.164062 -176.171875 80.515625 -169.015625 88.078125 -154.703125 C 95.648438 -140.398438 99.4375 -117.785156 99.4375 -86.859375 Z M 54.03125 -11.84375 C 60.613281 -11.84375 65.878906 -14.269531 69.828125 -19.125 C 73.773438 -23.976562 76.773438 -30.226562 78.828125 -37.875 C 80.890625 -45.519531 82.289062 -53.703125 83.03125 -62.421875 C 83.769531 -71.140625 84.140625 -79.285156 84.140625 -86.859375 C 84.140625 -94.585938 83.769531 -102.769531 83.03125 -111.40625 C 82.289062 -120.039062 80.890625 -128.179688 78.828125 -135.828125 C 76.773438 -143.484375 73.773438 -149.738281 69.828125 -154.59375 C 65.878906 -159.445312 60.613281 -161.875 54.03125 -161.875 C 47.457031 -161.875 42.195312 -159.445312 38.25 -154.59375 C 34.300781 -149.738281 31.296875 -143.484375 29.234375 -135.828125 C 27.179688 -128.179688 25.785156 -120.039062 25.046875 -111.40625 C 24.304688 -102.769531 23.9375 -94.585938 23.9375 -86.859375 C 23.9375 -79.285156 24.304688 -71.140625 25.046875 -62.421875 C 25.785156 -53.703125 27.179688 -45.519531 29.234375 -37.875 C 31.296875 -30.226562 34.300781 -23.976562 38.25 -19.125 C 42.195312 -14.269531 47.457031 -11.84375 54.03125 -11.84375 Z M 54.03125 -11.84375 "/></g></g></g><g fill="#fcfcfc" fill-opacity="1"><g transform="translate(1.658096, 239.427281)"><g><path d="M 103.320312 -172.375 L 67.011719 1.695312 L 47.476562 1.695312 L 10.496094 -174.417969 L 28.765625 -174.417969 L 58.90625 -31.191406 L 57.246094 -30.84375 L 55.582031 -31.191406 L 85.476562 -174.417969 L 103.746094 -174.417969 Z M 99.996094 -173.066406 L 101.65625 -172.71875 L 101.65625 -171.023438 L 86.855469 -171.023438 L 86.855469 -172.71875 L 88.515625 -172.375 L 58.90625 -30.496094 L 55.585938 -30.492188 L 25.726562 -172.371094 L 27.386719 -172.71875 L 27.386719 -171.023438 L 12.582031 -171.023438 L 12.582031 -172.71875 L 14.242188 -173.070312 L 50.515625 -0.347656 L 48.855469 0 L 48.855469 -1.695312 L 65.632812 -1.695312 L 65.632812 0 L 63.972656 -0.347656 Z M 99.996094 -173.066406 "/></g></g></g><g fill="#fcfcfc" fill-opacity="1"><g transform="translate(70.985732, 239.427281)"><g><path d="M 77.460938 -25.75 L 36.5 -70.410156 L 37.75 -71.554688 L 39.417969 -71.234375 L 25.335938 1.695312 L 7.304688 1.695312 L 42.777344 -174.417969 L 63.800781 -174.417969 L 101.285156 1.695312 L 82.75 1.695312 L 77.046875 -26.558594 L 78.710938 -26.894531 Z M 80.28125 -27.695312 L 85.800781 -0.335938 L 84.140625 0 L 84.140625 -1.695312 L 99.191406 -1.695312 L 99.191406 0 L 97.53125 0.351562 L 60.765625 -172.367188 L 62.425781 -172.71875 L 62.425781 -171.023438 L 44.167969 -171.023438 L 44.167969 -172.71875 L 45.828125 -172.386719 L 11.039062 0.335938 L 9.375 0 L 9.375 -1.695312 L 23.933594 -1.695312 L 23.933594 0 L 22.269531 -0.320312 L 36.726562 -75.183594 L 79.960938 -28.042969 Z M 71.867188 -52.460938 L 51.636719 -150.417969 L 53.296875 -150.761719 L 54.960938 -150.4375 L 42.871094 -87.765625 L 41.207031 -88.085938 L 42.457031 -89.234375 L 74.78125 -53.949219 L 73.53125 -52.804688 Z M 76.4375 -47.121094 L 39.378906 -87.570312 L 51.628906 -151.082031 L 54.957031 -151.101562 L 75.191406 -53.144531 Z M 76.4375 -47.121094 "/></g></g></g><g fill="#4a2e6f" fill-opacity="1"><g transform="translate(1.658096, 239.427281)"><g><path d="M 101.65625 -172.71875 L 65.640625 0 L 48.859375 0 L 12.578125 -172.71875 L 27.390625 -172.71875 L 57.25 -30.84375 L 86.859375 -172.71875 Z M 101.65625 -172.71875 "/></g></g></g><g fill="#4a2e6f" fill-opacity="1"><g transform="translate(70.985732, 239.427281)"><g><path d="M 78.71875 -26.890625 L 37.75 -71.5625 L 23.9375 0 L 9.375 0 L 44.171875 -172.71875 L 62.421875 -172.71875 L 99.1875 0 L 84.140625 0 Z M 73.53125 -52.796875 L 53.296875 -150.765625 L 41.203125 -88.09375 Z M 73.53125 -52.796875 "/></g></g></g></g></g></svg>
