<svg xmlns="http://www.w3.org/2000/svg" xmlns:xlink="http://www.w3.org/1999/xlink" width="360" zoomAndPan="magnify" viewBox="0 0 270 72" height="96" preserveAspectRatio="xMidYMid meet" version="1.0"><defs><g/></defs><rect x="-27" width="324" fill="#ffffff" y="-7.2" height="86.4" fill-opacity="1"/><rect x="-27" width="324" fill="#ffffff" y="-7.2" height="86.4" fill-opacity="1"/><g fill="#4a2e6f" fill-opacity="1"><g transform="translate(22.184512, 49.125)"><g><path d="M 25.5625 0 L 16.5625 0 L 0.75 -27.109375 L 9.828125 -27.109375 L 23.328125 -3.890625 L 36.859375 -27.109375 L 41.328125 -27.109375 Z M 25.5625 0 "/></g></g></g><g fill="#4a2e6f" fill-opacity="1"><g transform="translate(78.596592, 49.125)"><g><path d="M 16.671875 -27.109375 L 25.671875 -27.109375 L 41.4375 0 L 32.21875 0 L 27.6875 -7.734375 L 10.015625 -7.734375 L 5.515625 0 L 0.859375 0 Z M 18.859375 -22.9375 L 12.390625 -11.625 L 25.34375 -11.625 Z M 18.859375 -22.9375 "/></g></g></g><g fill="#4a2e6f" fill-opacity="1"><g transform="translate(141.704679, 49.125)"><g><path d="M 3.5625 -27.109375 L 11.296875 -27.109375 L 11.296875 -15.484375 L 30.671875 -15.484375 L 30.671875 -27.109375 L 38.40625 -27.109375 L 38.40625 0 L 30.671875 0 L 30.671875 -11.625 L 11.296875 -11.625 L 11.296875 0 L 3.5625 0 Z M 3.5625 -27.109375 "/></g></g></g><g fill="#4a2e6f" fill-opacity="1"><g transform="translate(204.452757, 49.125)"><g><path d="M 2.09375 -13.53125 C 2.09375 -15.476562 2.445312 -17.1875 3.15625 -18.65625 C 3.863281 -20.132812 4.84375 -21.40625 6.09375 -22.46875 C 7.351562 -23.539062 8.804688 -24.421875 10.453125 -25.109375 C 12.097656 -25.796875 13.859375 -26.300781 15.734375 -26.625 C 17.609375 -26.945312 19.515625 -27.109375 21.453125 -27.109375 C 23.398438 -27.109375 25.304688 -26.945312 27.171875 -26.625 C 29.046875 -26.300781 30.804688 -25.796875 32.453125 -25.109375 C 34.097656 -24.421875 35.550781 -23.539062 36.8125 -22.46875 C 38.070312 -21.40625 39.054688 -20.132812 39.765625 -18.65625 C 40.472656 -17.1875 40.828125 -15.476562 40.828125 -13.53125 C 40.828125 -11.738281 40.507812 -10.140625 39.875 -8.734375 C 39.238281 -7.328125 38.367188 -6.097656 37.265625 -5.046875 L 40.75 -3.5625 L 39.28125 0 L 33.4375 -2.40625 C 31.71875 -1.59375 29.820312 -0.988281 27.75 -0.59375 C 25.6875 -0.195312 23.585938 0 21.453125 0 C 19.515625 0 17.609375 -0.160156 15.734375 -0.484375 C 13.859375 -0.804688 12.097656 -1.300781 10.453125 -1.96875 C 8.804688 -2.644531 7.351562 -3.515625 6.09375 -4.578125 C 4.84375 -5.648438 3.863281 -6.929688 3.15625 -8.421875 C 2.445312 -9.910156 2.09375 -11.613281 2.09375 -13.53125 Z M 33.046875 -13.53125 C 33.046875 -15.476562 32.710938 -17.082031 32.046875 -18.34375 C 31.390625 -19.601562 30.507812 -20.585938 29.40625 -21.296875 C 28.300781 -22.003906 27.054688 -22.5 25.671875 -22.78125 C 24.296875 -23.070312 22.890625 -23.21875 21.453125 -23.21875 C 19.992188 -23.21875 18.570312 -23.070312 17.1875 -22.78125 C 15.8125 -22.5 14.570312 -22.003906 13.46875 -21.296875 C 12.363281 -20.585938 11.476562 -19.601562 10.8125 -18.34375 C 10.15625 -17.082031 9.828125 -15.476562 9.828125 -13.53125 C 9.828125 -11.59375 10.15625 -10 10.8125 -8.75 C 11.476562 -7.5 12.363281 -6.519531 13.46875 -5.8125 C 14.570312 -5.101562 15.8125 -4.601562 17.1875 -4.3125 C 18.570312 -4.03125 19.992188 -3.890625 21.453125 -3.890625 C 22.515625 -3.890625 23.570312 -3.957031 24.625 -4.09375 C 25.675781 -4.238281 26.660156 -4.492188 27.578125 -4.859375 L 21.390625 -7.453125 L 22.859375 -11.015625 L 31.28125 -7.53125 C 31.832031 -8.25 32.265625 -9.097656 32.578125 -10.078125 C 32.890625 -11.066406 33.046875 -12.21875 33.046875 -13.53125 Z M 33.046875 -13.53125 "/></g></g></g></svg>
